Coordinates
version=1
nRows=6
nColumns=36
inDegrees=yes

Units are S.I. units (second, meters, Newtons, ...)
If the header above contains a line with 'inDegrees', this indicates whether rotational values are in degrees (yes) or radians (no).

endheader
time	pelvis_tilt	pelvis_list	pelvis_rotation	pelvis_tx	pelvis_ty	pelvis_tz	hip_flexion_r	hip_adduction_r	hip_rotation_r	knee_angle_r	knee_angle_r_beta	ankle_angle_r	subtalar_angle_r	mtp_angle_r	hip_flexion_l	hip_adduction_l	hip_rotation_l	knee_angle_l	knee_angle_l_beta	ankle_angle_l	subtalar_angle_l	mtp_angle_l	lumbar_extension	lumbar_bending	lumbar_rotation	arm_flex_r	arm_add_r	arm_rot_r	elbow_flex_r	pro_sup_r	arm_flex_l	arm_add_l	arm_rot_l	elbow_flex_l	pro_sup_l
      0.00000000	      3.91314081	     -1.66640708	      1.90352680	     -0.05258558	      1.28146353	      0.05496957	      0.13314738	      2.86120261	      1.21313555	      3.12281057	      0.05450333	     -0.17768341	      4.68137606	     -6.20299142	      1.78546530	     -0.67666517	     -4.11207195	      3.10231119	      0.05414554	      0.39321501	      0.85342017	     -6.20299142	     -6.97401314	      2.87370060	     -3.33300223	     -5.50840857	     -8.28986037	      5.72840987	     37.02474073	     78.62055397	     -3.72766368	     -6.42253129	     13.35897845	     27.71372014	     71.63536521
      0.01666670	      3.53468082	     -0.75705051	      0.89221224	     -0.05215629	      1.28130316	      0.05536052	      0.40856395	      1.95278732	      2.81348258	      1.80625405	      0.03152508	      0.04527705	      6.61301049	     -6.21084977	      1.18455959	      0.01434309	     -5.10987794	      2.08225888	      0.03634227	      0.71908110	      1.23518477	     -6.21084977	     -5.07718854	      1.91186558	     -3.04825708	     -5.31115477	     -8.16397707	      5.14089886	     37.08034293	     78.67780514	     -4.43957637	     -5.60076370	     13.12088928	     27.21314454	     71.82674886
      0.03333330	      2.14512880	     -0.40441232	     -0.11654291	     -0.04955862	      1.27712448	      0.05600681	      1.76611292	      1.76802883	      2.66183484	      1.30995673	      0.02286306	      0.71888498	      7.62098838	     -6.92605122	      2.49354047	      0.39579755	     -6.59390454	      2.11802329	      0.03696648	      0.73730370	      2.31224455	     -6.92605122	     -3.07869051	      1.37096857	     -1.53434543	     -6.97848464	     -6.83654801	     -1.73856007	     38.87927404	     83.81445366	     -4.98005350	     -4.44428377	      7.92934037	     26.95766083	     80.07582749
      0.05000000	      1.71692579	     -0.48830769	     -0.67045055	     -0.04707591	      1.27576429	      0.05591582	      1.98780976	      1.85267362	      3.10080554	      1.21952124	      0.02128466	      0.94870481	      8.09921858	     -7.26613974	      2.75481808	      0.34350190	     -6.95507848	      1.80424757	      0.03149006	      1.65993530	      3.25121470	     -7.26613974	     -2.34319009	      1.47149740	     -1.18179830	     -7.42445106	     -6.15899434	     -4.90308911	     39.78972250	     86.15953711	     -5.78889318	     -3.42007022	      3.50460839	     27.56779348	     83.56435707
      0.06666670	      1.05715563	     -0.50347966	     -0.98615970	     -0.04488563	      1.27931216	      0.05597674	      2.43154297	      1.85857420	      3.57952911	      1.19478482	      0.02085293	      0.64351870	      8.41949634	     -7.28454463	      3.21339106	      0.35558882	     -7.53607091	      1.58974785	      0.02774633	      1.72571439	      4.22046086	     -7.28454463	     -1.37174459	      1.53494026	     -0.84597125	     -8.03869980	     -5.68332482	     -6.54223590	     40.68734033	     86.29228193	     -6.44149677	     -2.68448141	      1.15408604	     28.21727465	     83.78791092
      0.08333330	      0.69321660	     -0.42511863	     -1.32410415	     -0.04141969	      1.27508146	      0.05546802	      2.70166178	      1.75473607	      3.58439749	      1.16088040	      0.02026119	      0.65968222	      8.48316997	     -7.29443107	      3.35834188	      0.46846643	     -8.16590148	      1.51024209	      0.02635870	      2.25002921	      4.91902070	     -7.29443107	     -0.51659672	      1.45929490	     -0.67420399	     -8.31941270	     -5.43942512	     -6.78170296	     41.08758900	     86.90705346	     -7.22408511	     -2.03129826	     -1.17124560	     29.00262988	     84.52059279
